<svg xmlns="http://www.w3.org/2000/svg" width="217.755" height="184.133" viewBox="0 0 217.755 184.133">
  <g id="televisions-computer-screen-svgrepo-com" transform="translate(0 -39.184)">
    <g id="Group_11" data-name="Group 11" transform="translate(0 39.184)">
      <g id="Group_10" data-name="Group 10">
        <path id="Path_24" data-name="Path 24" d="M205.534,39.184H12.221A12.225,12.225,0,0,0,0,51.385V180.056a12.225,12.225,0,0,0,12.221,12.2h72.24l-4.064,14.2H73.992a8.43,8.43,0,1,0,0,16.86h69.77a8.43,8.43,0,1,0,0-16.86h-6.405l-4.064-14.2h72.241a12.226,12.226,0,0,0,12.221-12.2V51.385A12.225,12.225,0,0,0,205.534,39.184ZM143.763,213.112a1.775,1.775,0,1,1,0,3.55H73.992a1.775,1.775,0,1,1,0-3.55ZM87.33,206.456l4.064-14.2h34.968l4.064,14.2Zm123.759-26.4a5.557,5.557,0,0,1-5.555,5.546H12.221a5.557,5.557,0,0,1-5.555-5.546V163.418H211.089v16.639Zm0-23.294H6.666V51.385a5.556,5.556,0,0,1,5.555-5.546H205.534a5.557,5.557,0,0,1,5.555,5.546V156.763Z" transform="translate(0 -39.184)" fill="#528ac8"/>
      </g>
    </g>
    <g id="Group_13" data-name="Group 13" transform="translate(11.122 50.306)">
      <g id="Group_12" data-name="Group 12">
        <path id="Path_25" data-name="Path 25" d="M26.122,65.306V168.077H221.877V65.306ZM215.2,161.4H32.8V71.98H215.2V161.4Z" transform="translate(-26.122 -65.306)" fill="#528ac8"/>
      </g>
    </g>
    <g id="Group_15" data-name="Group 15" transform="translate(103.439 169.317)">
      <g id="Group_14" data-name="Group 14">
        <circle id="Ellipse_7" data-name="Ellipse 7" cx="5.561" cy="5.561" r="5.561"/>
      </g>
    </g>
  </g>
</svg>
