<svg xmlns="http://www.w3.org/2000/svg" width="26.067" height="28.392" viewBox="0 0 26.067 28.392">
  <g id="Group_4" data-name="Group 4" transform="translate(-1.003 -0.022)">
    <path id="Path_8" data-name="Path 8" d="M27.054.752A.593.593,0,0,0,26.2.09L1.927,12.818a1.732,1.732,0,0,0-.119,2.995h0l5.4,3.416a.3.3,0,0,0,.356-.028L21.977,6.32a.3.3,0,0,1,.428.405L10.891,21.168a.3.3,0,0,0,.073.435l7.623,4.823a1.723,1.723,0,0,0,2.6-1.061Z" transform="translate(0 0)"/>
    <path id="Path_9" data-name="Path 9" d="M7.956,19.189a.3.3,0,0,0-.456.25c0,1.252,0,4.249,0,4.249a1.185,1.185,0,0,0,2.023.838l2.392-2.391a.3.3,0,0,0-.051-.46Z" transform="translate(1.203 3.541)"/>
  </g>
</svg>
