<svg xmlns="http://www.w3.org/2000/svg" width="84.513" height="84.527" viewBox="0 0 84.513 84.527">
  <g id="Layer_19" data-name="Layer 19" transform="translate(-0.108 -0.1)">
    <path id="Path_44" data-name="Path 44" d="M71.282,62.925a8.4,8.4,0,1,0,8.386,8.4A8.4,8.4,0,0,0,71.282,62.925Zm3.71,9.91H72.58v2.424a1.325,1.325,0,0,1-1.325,1.325h0a1.325,1.325,0,0,1-1.325-1.325V72.941H67.612a1.325,1.325,0,1,1,0-2.65h2.424V67.867a1.325,1.325,0,0,1,1.325-1.325h0a1.325,1.325,0,0,1,1.325,1.325v2.319H75a1.325,1.325,0,1,1-.013,2.65ZM52.681,43.966a3.829,3.829,0,1,1-3.829-3.829A3.829,3.829,0,0,1,52.681,43.966Zm-13.156,0a3.829,3.829,0,1,1-3.789-3.829A3.829,3.829,0,0,1,39.525,43.966ZM42.36.1A42.263,42.263,0,1,0,61.2,80.2,13.434,13.434,0,0,1,80.172,61.256,42.276,42.276,0,0,0,42.36.1ZM63.187,51.293s-2.769,5.127-10.6,5.551a.278.278,0,0,1-.265-.119l-1.762-2.266A.3.3,0,0,1,50.654,54c1.166-.623,5.193-2.835,6.624-4.981a31.306,31.306,0,0,1-14.918,4.73,31.306,31.306,0,0,1-14.9-4.756c1.484,2.146,5.511,4.359,6.624,4.981a.3.3,0,0,1,.093.464L32.411,56.7a.278.278,0,0,1-.265.119c-7.949-.424-10.6-5.551-10.6-5.551-.49-8.559,3.975-18.813,4.862-20.787a1.391,1.391,0,0,1,.477-.556,19.422,19.422,0,0,1,9.87-3.193l.079.3c-5.631,1.524-7.83,3.365-8.545,4.12a.085.085,0,0,0,.106.132c5.723-3.1,13.964-2.928,13.964-2.928s8.241-.172,13.977,2.954a.085.085,0,0,0,.106-.132c-.715-.755-2.915-2.65-8.545-4.12l.093-.3a19.422,19.422,0,0,1,9.857,3.193,1.391,1.391,0,0,1,.477.556C59.226,32.48,63.677,42.734,63.187,51.293Z" transform="translate(0 0)"/>
  </g>
</svg>
