<svg xmlns="http://www.w3.org/2000/svg" width="75" height="91" viewBox="0 0 75 91">
  <g id="Group_5" data-name="Group 5" transform="translate(-0.108 0.391)">
    <path id="Path_10" data-name="Path 10" d="M59.939,26.279V15H55.277v5.64H8.662V15H4V26.279H20.315V38.72l-9.323,6.274V57.3h4.662V48.31l7.6-5.111H40.689l7.6,5.111V57.3h4.662v-12.3L43.623,38.72V26.279ZM38.962,37.559H24.977V26.279H38.962Z" transform="translate(5.323 27.378)" fill="#528ac8"/>
    <rect id="Rectangle_10" data-name="Rectangle 10" width="22" height="5" transform="translate(0.108 30.609)" fill="#528ac8"/>
    <rect id="Rectangle_11" data-name="Rectangle 11" width="24" height="5" transform="translate(51.108 30.609)" fill="#528ac8"/>
    <path id="Path_11" data-name="Path 11" d="M21.643,6a12.848,12.848,0,0,0-9.884,4.961l3.295,3.986a8.578,8.578,0,0,1,6.589-3.307,8.578,8.578,0,0,1,6.589,3.307l3.295-3.986A12.847,12.847,0,0,0,21.643,6Z" transform="translate(15.649 11)" fill="#528ac8"/>
    <path id="Path_12" data-name="Path 12" d="M8.932,10.268l3.294,3.986A17.156,17.156,0,0,1,25.405,7.64a17.156,17.156,0,0,1,13.179,6.615l3.295-3.986C37.513,4.975,31.587,2,25.406,2S13.3,4.975,8.932,10.268Z" transform="translate(11.887 3.72)" fill="#528ac8"/>
    <rect id="_Transparent_Rectangle_" data-name="&lt;Transparent Rectangle&gt;" width="75" height="91" transform="translate(0.108 -0.391)" fill="none"/>
  </g>
</svg>
