<svg id="Page-1" xmlns="http://www.w3.org/2000/svg" width="73.851" height="72.864" viewBox="0 0 73.851 72.864">
  <g id="Dribbble-Light-Preview">
    <g id="icons">
      <path id="github-_142_" data-name="github-[#142]" d="M120.925,7399a37.419,37.419,0,0,1,11.694,72.794c-1.872.369-2.537-.8-2.537-1.792,0-1.232.044-5.254.044-10.252,0-3.483-1.182-5.755-2.507-6.915,8.223-.926,16.864-4.084,16.864-18.434a14.511,14.511,0,0,0-3.8-10.024,13.539,13.539,0,0,0-.362-9.888s-3.094-1-10.143,3.831a34.625,34.625,0,0,0-18.492,0c-7.056-4.831-10.158-3.831-10.158-3.831a13.592,13.592,0,0,0-.358,9.888,14.562,14.562,0,0,0-3.8,10.024c0,14.313,8.622,17.52,16.823,18.465a7.978,7.978,0,0,0-2.345,4.993c-2.1.956-7.451,2.6-10.745-3.1,0,0-1.953-3.588-5.661-3.851,0,0-3.6-.047-.251,2.27,0,0,2.419,1.148,4.1,5.466,0,0,2.168,6.667,12.44,4.407.018,3.121.052,6.065.052,6.955,0,.987-.679,2.144-2.522,1.8a37.418,37.418,0,0,1,11.672-72.8" transform="translate(-84 -7398.999)" fill-rule="evenodd"/>
    </g>
  </g>
</svg>
