<svg xmlns="http://www.w3.org/2000/svg" width="69.235" height="72.864" viewBox="0 0 69.235 72.864">
  <g id="instagram" transform="translate(-83.742 -80.637)">
    <path id="Path_38" data-name="Path 38" d="M575.152,326.855c3.4-.173,3.928,5.647.192,5.137C572.246,331.9,571.853,326.946,575.152,326.855Z" transform="translate(-446.354 -223.76)" fill="#fff"/>
    <path id="Path_39" data-name="Path 39" d="M139.955,116.958c.271-20.831-7.725-23.527-25.961-22.371C101.433,93.576,96.5,103.5,96.466,115.246c-.681,11.495,2.715,26.023,16.428,24.8C130.012,139.729,140.749,137.917,139.955,116.958ZM110.022,81.107c19.606-1.9,42.3,1.029,42.572,26.633.69,11.786,1.056,24.42-4.478,35.113-5.892,10.456-15.713,10.019-25.926,10.265-8.982.373-18.244,1.184-26.9-1.885-8.825-3.188-11.226-10.138-11.034-19.228-.306-7.824-.611-15.63-.48-23.463C84.21,89.979,91.979,80.679,110.022,81.107Z" transform="translate(0 0)"/>
    <path id="Path_40" data-name="Path 40" d="M246.078,231.362c18.235-1.157,26.223,1.539,25.961,22.37.794,20.959-9.943,22.762-27.052,23.09-13.722,1.221-17.109-13.317-16.428-24.8C228.585,240.279,233.517,230.351,246.078,231.362Zm22.12,23.026c0-12.9-1.519-19.729-15.555-19.073-4.173.428-9.052-.219-13.242,1.266-8.415,4.29-7.254,16.086-6.477,24.265.759,13.216,11.261,12.825,21.09,11.349C266.086,271.53,268.312,266.092,268.2,254.388Z" transform="translate(-132.084 -136.774)" fill="#fff"/>
    <path id="Path_41" data-name="Path 41" d="M372.7,358c-8.886-.474-11.627,14.8-1.877,15.211C379.989,372.987,381.394,360.727,372.7,358Zm-1.859-3.507c15.346-1.084,14.4,22.58-.07,22.416C357.057,376.476,358.34,355.772,370.841,354.5Z" transform="translate(-252.997 -248.852)" fill="#fff"/>
    <path id="Path_42" data-name="Path 42" d="M409.5,408.409c-9.751-.419-7.018-15.694,1.877-15.211C420.065,395.922,418.66,408.182,409.5,408.409Z" transform="translate(-291.668 -284.046)"/>
    <path id="Path_43" data-name="Path 43" d="M293.482,276.513c14.037-.665,15.564,6.176,15.555,19.073.1,11.7-2.112,17.142-14.185,17.807-9.829,1.476-20.33,1.867-21.09-11.349-.777-8.189-1.929-19.975,6.477-24.265C284.429,276.295,289.309,276.942,293.482,276.513Zm-2.776,29.521c14.464.164,15.416-23.5.07-22.416C278.266,284.893,276.983,305.6,290.706,306.034ZM301.914,286.2c3.736.51,3.212-5.3-.192-5.137C298.422,281.159,298.815,286.114,301.914,286.2Z" transform="translate(-172.923 -177.973)"/>
  </g>
</svg>
