<svg xmlns="http://www.w3.org/2000/svg" width="72.864" height="72.864" viewBox="0 0 72.864 72.864">
  <path id="linkedin-linked-in-svgrepo-com" d="M52.371,0H20.493A20.408,20.408,0,0,0,0,20.493V52.371A20.408,20.408,0,0,0,20.493,72.864H52.371A20.408,20.408,0,0,0,72.864,52.371V20.493A20.408,20.408,0,0,0,52.371,0ZM27.324,56.925A2.151,2.151,0,0,1,25.047,59.2H15.939a2.151,2.151,0,0,1-2.277-2.277V29.6a2.151,2.151,0,0,1,2.277-2.277h9.108A2.151,2.151,0,0,1,27.324,29.6ZM20.493,25.047a6.709,6.709,0,0,1-6.831-6.831,6.709,6.709,0,0,1,6.831-6.831,6.709,6.709,0,0,1,6.831,6.831A6.709,6.709,0,0,1,20.493,25.047ZM59.2,56.925A2.151,2.151,0,0,1,56.925,59.2H50.094a2.151,2.151,0,0,1-2.277-2.277v-14.8a3.416,3.416,0,1,0-6.831,0v14.8A2.151,2.151,0,0,1,38.709,59.2H31.878A2.151,2.151,0,0,1,29.6,56.925V29.6a2.151,2.151,0,0,1,2.277-2.277h9.108a2.067,2.067,0,0,1,1.594.683,12.894,12.894,0,0,1,4.1-.683A12.635,12.635,0,0,1,59.2,39.848Z"/>
</svg>
