<svg xmlns="http://www.w3.org/2000/svg" width="218" height="206.475" viewBox="0 0 218 206.475">
  <g id="phone-svgrepo-com" transform="translate(-40.5 -63.43)">
    <path id="Path_26" data-name="Path 26" d="M237.931,247.082c.613-30.691-1.9-61.358.139-92.021.871-28.146,10.469-35.888,38.071-37.022,57.441-1.768,81.761-6.941,78.546,61.706-.264,20.31-.029,40.6,1.216,60.875.5,17.329,1.778,35.088-2.706,52.039-3.95,16.91-21.959,18.029-36.359,17.6-13.879-.189-27.759-.58-41.631-1.076-44.921.663-36.79-29.081-37.209-62.1Zm11.589-2.37h.418c-.221,8.341-.563,16.682-.615,25.024.187,9.926-1.009,23.669,11.329,26.338,22.831,3.446,46.264,2.42,69.323,2.226,16.7.037,14.27-21.729,15.089-33.409-.185-20.292-1.376-40.575-2.052-60.857-1.183-20.138.257-40.632-3.26-60.543-3.4-19.088-28.04-14.4-42.47-15.63-12.68-.121-25.636.385-37.938,3.818-5.2,1.349-7.551,7.134-8.327,11.987C247.086,177.246,250.239,211.009,249.52,244.712Z" transform="translate(-147.96 -40.425)" fill="#3d6cb4"/>
    <path id="Path_27" data-name="Path 27" d="M741.768,305.712c-6.792.48-8.657-6.7-3.4-9.5,11.277-3.935,23.192-6.161,34.76-9.181,7.417-2.037,11.314,7.817,3.92,10.725-2.094.684-4.293,1.057-6.453,1.532C761.32,301.361,750.8,303.521,741.768,305.712Z" transform="translate(-522.51 -167.94)" fill="#3d6cb4"/>
    <path id="Path_28" data-name="Path 28" d="M77.514,464.361c-.032,2.321-1.447,3.791-3.264,4.831-8.539,4.884-17.635,8.727-26.634,12.663-6.485,2.193-10.072-5.959-3.993-9.217,7.79-3.649,15.716-7.048,23.568-10.572C70.979,460.065,77.1,458.087,77.514,464.361Z" transform="translate(0 -298.299)" fill="#3d6cb4"/>
    <path id="Path_29" data-name="Path 29" d="M155.856,88.726a14.515,14.515,0,0,1-3.373-1.629c-5.66-5.416-12.673-9.836-17.319-16.136-2.34-4.473,2.992-9.391,7.295-6.825,5.384,4.221,10.015,9.424,15.058,14.061C161.842,81.382,162.214,87.991,155.856,88.726Z" transform="translate(-70.757 0)" fill="#3d6cb4"/>
    <path id="Path_30" data-name="Path 30" d="M761.5,436.753a5.441,5.441,0,0,1-8.439,4.668c-3.956-3.037-7.552-6.6-11.2-10-6.956-6.2,1.024-14.22,7.47-7.531,3.234,2.67,6.412,5.406,9.63,8.1A6.026,6.026,0,0,1,761.5,436.753Z" transform="translate(-525.394 -269.16)" fill="#3d6cb4"/>
    <path id="Path_31" data-name="Path 31" d="M124.13,311.6c-4.632-.987-9.432-3.1-13.979-4.607-5.777-1.77-5.5-10,.956-10.088a6.926,6.926,0,0,1,2.389.434c4.641,2.1,9.694,3.541,14.031,6.214A4.523,4.523,0,0,1,124.13,311.6Z" transform="translate(-49.279 -175.572)" fill="#3d6cb4"/>
    <path id="Path_32" data-name="Path 32" d="M738.2,141.556c-4.424-.216-5.888-5.134-3.364-8.276,2.87-3.289,5.083-9.538,10.33-8.778a4.8,4.8,0,0,1,3.286,7.31A73.565,73.565,0,0,1,741,140.334C740.354,141.014,739.148,141.163,738.2,141.556Z" transform="translate(-521.205 -45.878)" fill="#3d6cb4"/>
    <path id="Path_33" data-name="Path 33" d="M285.122,277.036c.719-33.7-2.433-67.466,1.5-101.044.773-4.859,3.134-10.631,8.327-11.987,12.3-3.434,25.259-3.938,37.938-3.818,14.429,1.194,39.074-3.435,42.47,15.629,3.519,19.911,2.078,40.406,3.262,60.544.676,20.282,1.866,40.565,2.051,60.857-.786,11.717,1.583,33.414-15.087,33.409-23.059.2-46.494,1.219-69.325-2.225-12.333-2.684-11.142-16.405-11.328-26.339.052-8.342.394-16.683.615-25.024Zm36.884-107.255q-.015.13-.029.259c-40.277-.822-28.422,12.671-29.727,43.808.054,21.841.382,43.68.594,65.52a130.443,130.443,0,0,0,.332,19.915c.108,3.977,1.644,6.352,5.544,7.14a47.956,47.956,0,0,0,9.706,1.034c18.759-.579,37.732.184,56.2-3.748,11.989-2.3,11.45-16.945,10.928-26.554-1.245-12.6-1.4-25.283-1.747-37.934-1.2-20.47.92-41.373-2.908-61.567a6.752,6.752,0,0,0-6.646-5.481ZM326.1,317.67c1.819,14.858,20.657,8.582,20.076-4.247a3.736,3.736,0,0,0-1.2-2.589C338.587,303.976,326.119,308.422,326.1,317.67Z" transform="translate(-183.562 -72.749)" fill="#3d6cb4"/>
    <path id="Path_34" data-name="Path 34" d="M343.174,198.914l42.249,2.392a6.75,6.75,0,0,1,6.645,5.482c3.83,20.192,1.707,41.1,2.911,61.567.343,12.651.5,25.332,1.745,37.934.536,9.62,1.052,24.243-10.927,26.553-18.472,3.934-37.445,3.169-56.2,3.749a48.013,48.013,0,0,1-9.706-1.034c-3.9-.788-5.436-3.163-5.544-7.14a130.493,130.493,0,0,1-.331-19.915c-.212-21.84-.54-43.679-.593-65.52,1.32-31.158-10.58-44.61,29.727-43.808Q343.16,199.044,343.174,198.914Zm-20.952,38.765c.361,2.932.774,6.922,1.366,10.886.781,6.188,9.34,5.595,9.04-.868-.025-8.688.591-17.345,1.268-26,.235-3.2-1.718-5.958-4.52-6.292-3.339-.465-5.873,2.123-6.146,5.657C322.915,226.234,322.6,231.408,322.223,237.679Z" transform="translate(-204.73 -101.883)" stroke="#000" stroke-width="1"/>
    <path id="Path_35" data-name="Path 35" d="M451.914,764.386c.024-9.249,12.489-13.694,18.875-6.835a3.737,3.737,0,0,1,1.2,2.589C472.57,772.971,453.73,779.241,451.914,764.386Zm8.6,1.828c2.087-.018,3.973-1.841,3.892-3.342-.041-.757-.01-1.8-1.4-1.708C459.7,761.594,457.591,764.164,460.516,766.214Z" transform="translate(-309.379 -519.467)"/>
    <path id="Path_36" data-name="Path 36" d="M350.945,287.51c.38-6.271.692-11.445,1.009-16.619.275-3.531,2.807-6.125,6.146-5.657,2.8.333,4.754,3.088,4.519,6.291-.677,8.657-1.292,17.314-1.267,26,.3,6.456-8.26,7.063-9.041.868C351.719,294.431,351.306,290.441,350.945,287.51Z" transform="translate(-233.452 -151.714)" fill="#3d6cb4"/>
    <path id="Path_37" data-name="Path 37" d="M482.39,787.259c-2.926-2.051-.819-4.621,2.5-5.05,1.387-.088,1.356.951,1.4,1.709C486.363,785.418,484.477,787.241,482.39,787.259Z" transform="translate(-331.252 -540.51)" fill="#3d6cb4"/>
  </g>
</svg>
