<?xml version="1.0" encoding="UTF-8"?>
<svg id="Layer_1" data-name="Layer 1" xmlns="http://www.w3.org/2000/svg" xmlns:xlink="http://www.w3.org/1999/xlink" viewBox="0 0 433 463.56">
  <defs>
    <style>
      .cls-1 {
        clip-path: url(#clippath);
      }

      .cls-2 {
        fill: none;
      }

      .cls-2, .cls-3 {
        stroke-width: 0px;
      }

      .cls-3 {
        fill: #c42b38;
      }
    </style>
    <clipPath id="clippath">
      <rect class="cls-2" x="63.63" y="47.32" width="305.74" height="368.91" transform="translate(-77.67 113.21) rotate(-25)"/>
    </clipPath>
  </defs>
  <g id="Group_143" data-name="Group 143">
    <g id="Group_23" data-name="Group 23">
      <path id="Path_13" data-name="Path 13" class="cls-3" d="M244.77,350.24l-.26,1.35-1.04-.2.26-1.35"/>
      <g id="Group_22" data-name="Group 22">
        <g class="cls-1">
          <g id="Group_21" data-name="Group 21">
            <path id="Path_14" data-name="Path 14" class="cls-3" d="M347.16,254.43c-6.14,17.3-15.35,33.35-27.19,47.37l-66.15-23.55c41.48-27.99,52.41-84.3,24.42-125.78s-84.3-52.41-125.78-24.42-52.41,84.3-24.42,125.78c22.21,32.91,63.26,47.53,101.27,36.06l-23.55,66.15c-84.43,1.46-154.06-65.79-155.53-150.23-1.46-84.43,65.79-154.06,150.23-155.53,84.43-1.46,154.06,65.79,155.53,150.23.32,18.36-2.67,36.62-8.83,53.92"/>
            <path id="Path_15" data-name="Path 15" class="cls-3" d="M242.27,287.03c-30.91,14.41-44.28,51.15-29.86,82.05,14.41,30.91,51.15,44.28,82.05,29.86s44.28-51.15,29.86-82.05h0c-14.41-30.91-51.15-44.28-82.05-29.86M281.59,371.35c-15.66,7.3-34.28.53-41.58-15.14-7.3-15.66-.53-34.28,15.14-41.58,15.66-7.3,34.28-.53,41.58,15.14,7.3,15.66.53,34.28-15.14,41.58"/>
            <path id="Path_16" data-name="Path 16" class="cls-3" d="M229.31,289.89s15.44-3.95,25.43-12.27c7.09-5.91,67.69,21.2,67.69,21.2-4.54,6.54-16.68,18.96-23.37,21.28-8.92,3.11-24.96-20.09-24.96-20.09l-40.96,23.1s-3.61,29.41-11.29,31c-5.31,1.02-10.69,1.66-16.1,1.91l23.55-66.15Z"/>
          </g>
        </g>
      </g>
    </g>
    <circle id="Ellipse_16" data-name="Ellipse 16" class="cls-3" cx="201.83" cy="203.16" r="41.09"/>
  </g>
</svg>