<svg xmlns="http://www.w3.org/2000/svg" width="38" height="38" viewBox="0 0 38 38">
  <path id="double-quote-round-svgrepo-com" d="M38.583,20.666a19,19,0,1,1-19-19,19,19,0,0,1,19,19Zm-21.018.36a8,8,0,0,0-.869-6.017,6.1,6.1,0,0,0-2.179-2.042,6.009,6.009,0,0,0-3.273-.667,5.421,5.421,0,0,0-3.113,9.576,5.352,5.352,0,0,0,6.036.506,8,8,0,0,1-3.972,3.367,9.459,9.459,0,0,1-1.164.394,4.416,4.416,0,0,0-1.068.307,1.361,1.361,0,0,0,.768,2.541,5.99,5.99,0,0,0,1.2-.271q.579-.166,1.14-.386a10.488,10.488,0,0,0,6.281-6.5q.127-.4.216-.809Zm15.215,0a7.994,7.994,0,0,0-.869-6.017,6.1,6.1,0,0,0-2.179-2.042,6,6,0,0,0-3.273-.667,5.421,5.421,0,0,0-3.113,9.576,5.349,5.349,0,0,0,6.036.506,8,8,0,0,1-3.969,3.367,9.5,9.5,0,0,1-1.166.394,4.433,4.433,0,0,0-1.068.307,1.363,1.363,0,0,0,.768,2.541,5.99,5.99,0,0,0,1.2-.271q.578-.168,1.14-.386a10.488,10.488,0,0,0,6.281-6.5Q32.691,21.434,32.78,21.026Z" transform="translate(-0.583 -1.666)"/>
</svg>
