<svg xmlns="http://www.w3.org/2000/svg" width="38.935" height="38.886" viewBox="0 0 38.935 38.886">
  <g id="Group_38" data-name="Group 38" transform="translate(1393.925 -1008.388)">
    <path id="Path_1070" data-name="Path 1070" d="M-1355.99,1031.977a2.844,2.844,0,0,1-.973,1.457c-.47.443-.916.91-1.4,1.342a.8.8,0,0,0-.257.815c.144.8.278,1.592.415,2.388a1.744,1.744,0,0,1-1.516,2.171,1.852,1.852,0,0,1-1.126-.272c-.717-.379-1.435-.754-2.144-1.146a.7.7,0,0,0-.748,0c-.709.392-1.427.768-2.145,1.145a1.658,1.658,0,0,1-2.263-.327c-.186-.185-.243-.094-.314.072a1.429,1.429,0,0,0-.039.822c.23,1.37.474,2.737.7,4.107a2.2,2.2,0,0,1-.881,2.243,2.118,2.118,0,0,1-2.362.224c-1.266-.638-2.52-1.3-3.766-1.981a1.213,1.213,0,0,0-1.285-.007c-1.187.654-2.393,1.271-3.591,1.905a2.229,2.229,0,0,1-2.509-.106,2.24,2.24,0,0,1-.917-2.368c.236-1.33.458-2.663.679-4a1.523,1.523,0,0,0-.023-.824c-.068-.173-.131-.293-.337-.083a1.637,1.637,0,0,1-2.2.345c-.73-.38-1.459-.763-2.179-1.161a.728.728,0,0,0-.782,0c-.742.411-1.489.814-2.247,1.2a1.717,1.717,0,0,1-2.554-1.288,6.777,6.777,0,0,1,.19-1.613c.076-.5.167-1,.257-1.493a.753.753,0,0,0-.248-.746c-.6-.562-1.181-1.146-1.768-1.722a1.714,1.714,0,0,1-.526-1.825,1.666,1.666,0,0,1,1.415-1.218c.786-.131,1.575-.252,2.367-.34a.977.977,0,0,0,.889-.634c.318-.729.687-1.437,1.039-2.151a1.659,1.659,0,0,1,1.564-1.013,1.654,1.654,0,0,1,1.573,1c.381.757.758,1.516,1.11,2.286a.762.762,0,0,0,.657.484c.753.1,1.5.229,2.255.322a1.773,1.773,0,0,1,1.743,1.465c.044.223.17.22.334.138a.974.974,0,0,0,.439-.458c.5-1.021,1-2.045,1.5-3.065.091-.185.109-.286-.155-.32a4.662,4.662,0,0,1-1.913-.7.366.366,0,0,0-.387-.064,3.07,3.07,0,0,1-1.45.225,12.3,12.3,0,0,1-1.67-.047,1.936,1.936,0,0,1-1.679-1.873q-.029-3.621,0-7.243a1.944,1.944,0,0,1,1.894-1.912c.707-.044,1.419-.018,2.129,0a1.889,1.889,0,0,1,.59.132c.556.2.558.212.918-.264a9.363,9.363,0,0,1,2.795-2.531,3.039,3.039,0,0,1,.47-.248,3.2,3.2,0,0,0,2.04-2.794,2.321,2.321,0,0,1,1.573-2.031h1.065a2.291,2.291,0,0,1,1.527,2.48,12.466,12.466,0,0,1-1.046,4.855c-.13.286-.114.4.244.391.861-.018,1.723-.013,2.585,0a1.969,1.969,0,0,1,2.02,2.387c-.035.211-.01.314.2.407a1.851,1.851,0,0,1,1.15,1.773,1.864,1.864,0,0,1-1.14,1.782.3.3,0,0,0-.2.406,1.886,1.886,0,0,1-.631,1.88.346.346,0,0,0-.106.427,1.954,1.954,0,0,1-1.95,2.652q-1.825.008-3.65,0c-.246,0-.325.044-.2.3.5.995.981,2,1.471,3a.927.927,0,0,0,.472.473c.149.063.261.079.3-.132a1.783,1.783,0,0,1,1.769-1.482c.742-.085,1.478-.214,2.218-.31a.792.792,0,0,0,.68-.515c.328-.725.694-1.433,1.039-2.151a1.716,1.716,0,0,1,1.62-1.112,1.706,1.706,0,0,1,1.624,1.1c.353.742.727,1.474,1.078,2.216a.676.676,0,0,0,.566.435c.627.081,1.25.2,1.879.265,1.069.1,1.973.408,2.229,1.615Zm-25.769,12.8a.965.965,0,0,0,.767,1.106,1.141,1.141,0,0,0,.753-.207c1.176-.62,2.357-1.231,3.522-1.871a2.451,2.451,0,0,1,2.527,0c1.188.651,2.39,1.276,3.589,1.907a.926.926,0,0,0,1.4-.406,1.627,1.627,0,0,0,.005-.825c-.219-1.295-.42-2.592-.666-3.881a2.5,2.5,0,0,1,.819-2.425c.985-.947,1.944-1.921,2.923-2.875a.952.952,0,0,0,.264-1.039.883.883,0,0,0-.8-.6c-1.24-.177-2.475-.4-3.72-.529a2.863,2.863,0,0,1-2.551-1.843c-.5-1.146-1.094-2.25-1.638-3.378a.938.938,0,0,0-.892-.641.943.943,0,0,0-.887.648c-.606,1.251-1.223,2.5-1.835,3.746a2.409,2.409,0,0,1-1.949,1.392c-1.341.189-2.677.4-4.019.587a.981.981,0,0,0-.909.631,1.012,1.012,0,0,0,.356,1.116c1.01.976,2,1.969,3,2.957a2.3,2.3,0,0,1,.688,2.039c-.065.475-.162.945-.243,1.418C-1381.434,1042.843-1381.607,1043.876-1381.759,1044.779Zm10.375-18.344c.761,0,1.521,0,2.281,0,.466,0,.693-.193.7-.563.008-.389-.233-.609-.7-.619-.38-.008-.761,0-1.14-.006a.679.679,0,0,1-.678-.456c-.178-.47.159-.9.738-.924s1.141,0,1.711-.009c.471-.006.731-.22.733-.585,0-.349-.292-.593-.733-.6-.38-.006-.761.01-1.14-.009a.684.684,0,0,1-.7-.657.7.7,0,0,1,.651-.711,2.6,2.6,0,0,1,.379-.017q1.065,0,2.129,0a.652.652,0,0,0,.554-.192.557.557,0,0,0,.113-.6.6.6,0,0,0-.594-.391c-.773,0-1.546,0-2.319-.005-.588,0-.91-.245-.912-.682s.334-.706.93-.711c.342,0,.684,0,1.026,0a.553.553,0,0,0,.492-.235.556.556,0,0,0,.062-.607.6.6,0,0,0-.587-.34c-1.09,0-2.18,0-3.269,0a1.161,1.161,0,0,1-1.121-1.8,10.91,10.91,0,0,0,.823-2.116,10.534,10.534,0,0,0,.343-3.151.689.689,0,0,0-.626-.73c-.369-.023-.619.2-.709.639-.023.111-.04.224-.063.335a4.745,4.745,0,0,1-2.807,3.785,6.772,6.772,0,0,0-2.585,2.127,6.018,6.018,0,0,1-.787.871.374.374,0,0,0-.149.322q.018,3.639.02,7.278c0,.906.011.926.888,1.2a3.527,3.527,0,0,0,.442.108,1.9,1.9,0,0,0,1.453-.205,1.85,1.85,0,0,1,1.96-.082,3.2,3.2,0,0,0,1.781.354c.468-.008.937,0,1.406,0Zm-20,11.939c0,.335.267.486.588.321q1.165-.6,2.316-1.227a1.812,1.812,0,0,1,1.846,0c.734.4,1.475.787,2.214,1.177.2.106.427.252.6-.014.155-.235.019-.425-.159-.6q-.875-.842-1.741-1.695a2.282,2.282,0,0,1-.74-2.161,2.326,2.326,0,0,1,2.206-1.914c.8-.106,1.6-.23,2.4-.352.105-.016.248-.015.263-.168a.308.308,0,0,0-.223-.319,1.617,1.617,0,0,0-.369-.085c-.751-.111-1.5-.235-2.255-.322a1.914,1.914,0,0,1-1.647-1.164c-.343-.746-.717-1.479-1.079-2.216-.083-.17-.155-.353-.4-.353s-.315.179-.4.35c-.368.749-.746,1.493-1.1,2.249a1.88,1.88,0,0,1-1.587,1.131c-.816.1-1.628.238-2.442.358-.181.026-.357.058-.428.258-.079.222.068.356.2.49.62.615,1.244,1.226,1.862,1.843a1.767,1.767,0,0,1,.522,1.7c-.03.148-.051.3-.076.448C-1391.131,1036.867-1391.26,1037.626-1391.388,1038.374Zm34-6.667c-.026-.206-.175-.293-.384-.324-.826-.121-1.65-.263-2.478-.366a1.869,1.869,0,0,1-1.6-1.112c-.358-.767-.745-1.521-1.12-2.281-.085-.172-.166-.346-.406-.339-.221.007-.293.17-.371.331-.366.75-.744,1.494-1.1,2.25a1.914,1.914,0,0,1-1.617,1.149c-.828.106-1.652.243-2.478.364-.207.03-.395.115-.388.338s.24.2.389.22c.587.094,1.178.162,1.766.255a4.285,4.285,0,0,1,1.643.419,2.3,2.3,0,0,1,.423,3.627c-.605.629-1.245,1.224-1.872,1.832-.174.168-.261.358-.115.571s.355.129.541.03c.75-.4,1.5-.787,2.247-1.2a1.828,1.828,0,0,1,1.88,0c.743.408,1.5.8,2.246,1.2.158.084.321.173.494.035a.444.444,0,0,0,.126-.48c-.152-.858-.275-1.72-.436-2.576a1.785,1.785,0,0,1,.529-1.693c.618-.617,1.241-1.229,1.861-1.844a.51.51,0,0,0,.216-.4Zm-23.275-10.022c0-1.125.007-2.25,0-3.375-.005-.589-.229-.8-.81-.8-.545,0-1.09,0-1.635,0-.5.005-.7.2-.7.687q-.008,3.451,0,6.9c0,.506.208.7.724.71s1.014,0,1.521,0c.7,0,.9-.2.905-.9,0-1.074,0-2.148,0-3.223Z" transform="translate(1 0)"/>
  </g>
</svg>
