<svg xmlns="http://www.w3.org/2000/svg" width="81" height="81" viewBox="0 0 81 81">
  <g id="Layer_x0020_1" transform="translate(0 0.902)">
    <rect id="Rectangle_35" data-name="Rectangle 35" width="81" height="81" transform="translate(0 -0.902)" fill="none"/>
    <path id="Path_23" data-name="Path 23" d="M3096.339,2099.7c-.761-4.483-3.99-5.094-5.379-5.144A1.184,1.184,0,0,1,3090,2094a4.181,4.181,0,0,0-3.688-2.091,6.108,6.108,0,0,0-1.464.192,1.356,1.356,0,0,1-1.456-.5,4.2,4.2,0,0,0-3.546-1.823,5.783,5.783,0,0,0-.878.075,1.745,1.745,0,0,1-.21.017,1.372,1.372,0,0,1-1.371-1.371l-.008-8.289a3.216,3.216,0,0,0-6.432.009c.009,3.6.017,14.4.025,17.665a1.37,1.37,0,0,1-.836,1.255c-6.382,2.668,1.5,14.629,2.9,16.678a1.275,1.275,0,0,1,.243.669l.343,4.676a1.461,1.461,0,0,0,1.372,1.364h0l15.407-.109a1.41,1.41,0,0,0,1.356-1.238l.627-4.8a1.439,1.439,0,0,1,.209-.585C3096.716,2109.428,3097.033,2103.849,3096.339,2099.7Z" transform="translate(-3042.013 -2059.801)"/>
  </g>
</svg>
