<svg xmlns="http://www.w3.org/2000/svg" width="101" height="78.617" viewBox="0 0 101 78.617">
  <g id="Group_9" data-name="Group 9" transform="translate(-3.141 -17.869)">
    <rect id="Rectangle_12" data-name="Rectangle 12" width="15.302" height="3.646" transform="translate(35.209 81.398)" fill="#528ac8" stroke="#707070" stroke-width="1" opacity="0.3"/>
    <path id="Path_13" data-name="Path 13" d="M67.835,82.5H12.416a8.8,8.8,0,0,1-8.775-8.775V30.86a8.8,8.8,0,0,1,8.775-8.775H73.462a8.8,8.8,0,0,1,8.775,8.775V47.283" transform="translate(0 -1.008)" fill="none" stroke="#3d6cb4" stroke-linecap="round" stroke-linejoin="round" stroke-miterlimit="10" stroke-width="1"/>
    <path id="Path_14" data-name="Path 14" d="M69.368,71.533H14.007a4.728,4.728,0,0,1-4.714-4.714V32.712A4.729,4.729,0,0,1,14.008,28H74.939a4.728,4.728,0,0,1,4.714,4.714v15.8" transform="translate(-1.533 -2.612)" fill="none" stroke="#3d6cb4" stroke-linecap="round" stroke-linejoin="round" stroke-miterlimit="10" stroke-width="1"/>
    <path id="Path_15" data-name="Path 15" d="M9.292,34.207v-1.5A4.729,4.729,0,0,1,14.007,28H74.938a4.728,4.728,0,0,1,4.714,4.714v1.5H9.292Z" transform="translate(-1.533 -2.612)" fill="#528ac8" stroke="#707070" stroke-width="1" opacity="0.3"/>
    <path id="Path_16" data-name="Path 16" d="M9.292,34.207v-1.5A4.729,4.729,0,0,1,14.007,28H74.938a4.728,4.728,0,0,1,4.714,4.714v1.5H9.292Z" transform="translate(-1.533 -2.612)" fill="none" stroke="#3d6cb4" stroke-linecap="round" stroke-linejoin="round" stroke-miterlimit="10" stroke-width="1"/>
    <circle id="Ellipse_2" data-name="Ellipse 2" cx="2.627" cy="2.627" r="2.627" transform="translate(40.313 72.76)" fill="#528ac8" stroke="#707070" stroke-width="1" opacity="0.3"/>
    <circle id="Ellipse_3" data-name="Ellipse 3" cx="2.627" cy="2.627" r="2.627" transform="translate(40.313 72.76)" fill="none" stroke="#3d6cb4" stroke-linecap="round" stroke-linejoin="round" stroke-miterlimit="10" stroke-width="1"/>
    <path id="Path_17" data-name="Path 17" d="M60.365,105.247s-1.387,8.969,5.442,8.969H39.557c6.829,0,5.335-8.876,5.335-8.876" transform="translate(-9.743 -23.568)" fill="none" stroke="#3d6cb4" stroke-linecap="round" stroke-linejoin="round" stroke-miterlimit="10" stroke-width="1"/>
    <rect id="Rectangle_13" data-name="Rectangle 13" width="26.201" height="9.79" transform="translate(13.039 36.265)" fill="none" stroke="#3d6cb4" stroke-linecap="round" stroke-linejoin="round" stroke-miterlimit="10" stroke-width="1"/>
    <g id="Group_6" data-name="Group 6" transform="translate(43.516 37.451)">
      <line id="Line_6" data-name="Line 6" x2="21.862" fill="none" stroke="#3d6cb4" stroke-linecap="round" stroke-linejoin="round" stroke-miterlimit="10" stroke-width="1"/>
      <line id="Line_7" data-name="Line 7" x2="25.505" transform="translate(0 4.372)" fill="none" stroke="#3d6cb4" stroke-linecap="round" stroke-linejoin="round" stroke-miterlimit="10" stroke-width="1"/>
      <line id="Line_8" data-name="Line 8" x2="21.862" transform="translate(0 7.287)" fill="none" stroke="#3d6cb4" stroke-linecap="round" stroke-linejoin="round" stroke-miterlimit="10" stroke-width="1"/>
    </g>
    <rect id="Rectangle_14" data-name="Rectangle 14" width="13.101" height="13.101" transform="translate(13.039 51.454)" fill="#528ac8" stroke="#707070" stroke-width="1" opacity="0.3"/>
    <rect id="Rectangle_15" data-name="Rectangle 15" width="13.101" height="13.101" transform="translate(13.039 51.454)" fill="none" stroke="#3d6cb4" stroke-linecap="round" stroke-linejoin="round" stroke-miterlimit="10" stroke-width="1"/>
    <rect id="Rectangle_16" data-name="Rectangle 16" width="13.101" height="13.101" transform="translate(30.891 51.454)" fill="none" stroke="#3d6cb4" stroke-linecap="round" stroke-linejoin="round" stroke-miterlimit="10" stroke-width="1"/>
    <rect id="Rectangle_17" data-name="Rectangle 17" width="13.101" height="13.101" transform="translate(48.743 51.454)" fill="none" stroke="#3d6cb4" stroke-linecap="round" stroke-linejoin="round" stroke-miterlimit="10" stroke-width="1"/>
    <path id="Path_18" data-name="Path 18" d="M123.075,106.373H95.288a3.524,3.524,0,0,1-3.514-3.514V60.172a3.524,3.524,0,0,1,3.514-3.514h27.787a3.524,3.524,0,0,1,3.514,3.514v42.687A3.524,3.524,0,0,1,123.075,106.373Z" transform="translate(-23.908 -10.387)" fill="none" stroke="#3d6cb4" stroke-linecap="round" stroke-linejoin="round" stroke-miterlimit="10" stroke-width="1"/>
    <path id="Path_19" data-name="Path 19" d="M122.8,99.43H97.378a2.266,2.266,0,0,1-2.266-2.266V62.816a2.266,2.266,0,0,1,2.266-2.266H122.8a2.266,2.266,0,0,1,2.266,2.266V97.164A2.267,2.267,0,0,1,122.8,99.43Z" transform="translate(-24.814 -11.443)" fill="none" stroke="#3d6cb4" stroke-linecap="round" stroke-linejoin="round" stroke-miterlimit="10" stroke-width="1"/>
    <circle id="Ellipse_4" data-name="Ellipse 4" cx="1.608" cy="1.608" r="1.608" transform="translate(84.973 90.273)" fill="#528ac8" stroke="#707070" stroke-width="1" opacity="0.3"/>
    <circle id="Ellipse_5" data-name="Ellipse 5" cx="1.608" cy="1.608" r="1.608" transform="translate(84.973 90.273)" fill="none" stroke="#3d6cb4" stroke-linecap="round" stroke-linejoin="round" stroke-miterlimit="10" stroke-width="1"/>
    <rect id="Rectangle_18" data-name="Rectangle 18" width="22.296" height="18.691" transform="translate(74.56 52.821)" fill="#528ac8" stroke="#707070" stroke-width="1" opacity="0.3"/>
    <rect id="Rectangle_19" data-name="Rectangle 19" width="22.764" height="18.691" transform="translate(74.092 52.821)" fill="none" stroke="#3d6cb4" stroke-linecap="round" stroke-linejoin="round" stroke-miterlimit="10" stroke-width="1"/>
    <line id="Line_9" data-name="Line 9" x2="17.489" transform="translate(74.851 76.803)" fill="none" stroke="#3d6cb4" stroke-linecap="round" stroke-linejoin="round" stroke-miterlimit="10" stroke-width="1"/>
    <line id="Line_10" data-name="Line 10" x2="14.574" transform="translate(74.851 79.717)" fill="none" stroke="#3d6cb4" stroke-linecap="round" stroke-linejoin="round" stroke-miterlimit="10" stroke-width="1"/>
    <g id="Group_7" data-name="Group 7" transform="translate(90.2 34.504)">
      <line id="Line_11" data-name="Line 11" y2="4.541" transform="translate(2.27)" fill="none" stroke="#3d6cb4" stroke-linecap="round" stroke-linejoin="round" stroke-miterlimit="10" stroke-width="1"/>
      <line id="Line_12" data-name="Line 12" x1="4.541" transform="translate(0 2.27)" fill="none" stroke="#3d6cb4" stroke-linecap="round" stroke-linejoin="round" stroke-miterlimit="10" stroke-width="1"/>
    </g>
    <g id="Group_8" data-name="Group 8" transform="translate(96.057 18.369)">
      <line id="Line_13" data-name="Line 13" y2="7.585" transform="translate(3.792)" fill="none" stroke="#3d6cb4" stroke-linecap="round" stroke-linejoin="round" stroke-miterlimit="10" stroke-width="1"/>
      <line id="Line_14" data-name="Line 14" x1="7.584" transform="translate(0 3.792)" fill="none" stroke="#3d6cb4" stroke-linecap="round" stroke-linejoin="round" stroke-miterlimit="10" stroke-width="1"/>
    </g>
  </g>
</svg>
