<svg id="Group_2" data-name="Group 2" xmlns="http://www.w3.org/2000/svg" width="40" height="40" viewBox="0 0 40 40">
  <path id="Path_3" data-name="Path 3" d="M0,0H40V40H0Z" fill="none"/>
  <path id="Path_4" data-name="Path 4" d="M31.63,8.895H25.49V6.447C25.49,5.1,24.116,4,22.42,4H16.28c-1.7,0-3.07,1.1-3.07,2.447V8.895H7.07c-1.7,0-3.055,1.1-3.055,2.447L4,24.8c0,1.352,1.374,2.447,3.07,2.447H31.63c1.7,0,3.07-1.1,3.07-2.447V11.342C34.7,9.99,33.326,8.895,31.63,8.895Zm-9.21,0H16.28V6.447h6.14Z" transform="translate(0.65 0.65)"/>
</svg>
