<?xml version="1.0" encoding="UTF-8"?>
<svg id="Layer_1" data-name="Layer 1" xmlns="http://www.w3.org/2000/svg" viewBox="0 0 444.2 444.5">
  <defs>
    <style>
      .cls-1 {
        fill: #c8ab2d;
      }
    </style>
  </defs>
  <path class="cls-1" d="M222.2,28.7c-48.2,0-92.3,17.7-126.3,47h232.3l51.8,51.8-151.5,151.5h208.5c-2.5,9.3-5.5,18.4-9.2,27.4H162.4l178.8-178.8-24.4-24.4H34.4c6.1-9.6,13-18.8,20.5-27.4,3.2-3.6,6.5-7.2,10-10.7,20.4-20.4,44.2-36.4,70.6-47.6C162.9,5.9,192,0,222,0s59.1,5.9,86.5,17.5c26.5,11.2,50.2,27.2,70.6,47.6,20.4,20.4,36.4,44.2,47.6,70.6,11.6,27.4,17.5,56.5,17.5,86.5s-.7,20.9-2.2,31.2h-29.1c1.6-10.2,2.5-20.6,2.5-31.2,0-106.7-86.8-193.5-193.5-193.5h.3ZM389.3,368.7c-3.2,3.6-6.5,7.2-10,10.7-20.4,20.4-44.2,36.4-70.6,47.6-27.4,11.6-56.5,17.5-86.5,17.5s-59.1-5.9-86.5-17.5c-26.5-11.2-50.2-27.2-70.6-47.6-20.4-20.4-36.4-44.2-47.6-70.6C5.9,281.4,0,252.3,0,222.3s.7-20.9,2.2-31.2h29.1c-1.6,10.2-2.5,20.6-2.5,31.2,0,106.7,86.8,193.5,193.5,193.5s92.3-17.7,126.2-47H116.2l-51.8-51.8,151.5-151.5H7.4c2.4-9.3,5.5-18.4,9.2-27.4h265.4l-178.8,178.8,24.4,24.4h282.4c-6.1,9.6-13,18.7-20.5,27.4h-.2Z"/>
</svg>